HIERARCHY
ROOT Hips
{
	OFFSET 0.000000 0.000000 0.000000 
	CHANNELS 6 Xposition Yposition Zposition Zrotation Yrotation Xrotation
	JOINT LeftUpLeg
	{
		OFFSET 1.363060 -1.794630 0.839290 
		CHANNELS 3 Zrotation Yrotation Xrotation
		JOINT LeftLeg
		{
			OFFSET 2.448110 -6.726130 0.000000 
			CHANNELS 3 Zrotation Yrotation Xrotation
			JOINT LeftFoot
			{
				OFFSET 2.562200 -7.039590 0.000000 
				CHANNELS 3 Zrotation Yrotation Xrotation
				JOINT LeftToeBase
				{
					OFFSET 0.157640 -0.433110 2.322550 
					CHANNELS 3 Zrotation Yrotation Xrotation
					End Site
					{
						OFFSET 0.000000 0.000000 0.000000 
					}
				}
			}
		}
	}
	JOINT RightUpLeg
	{
		OFFSET -1.305520 -1.794630 0.839290 
		CHANNELS 3 Zrotation Yrotation Xrotation
		JOINT RightLeg
		{
			OFFSET -2.542530 -6.985550 0.000000 
			CHANNELS 3 Zrotation Yrotation Xrotation
			JOINT RightFoot
			{
				OFFSET -2.568260 -7.056230 0.000000 
				CHANNELS 3 Zrotation Yrotation Xrotation
				JOINT RightToeBase
				{
					OFFSET -0.164730 -0.452590 2.363150 
					CHANNELS 3 Zrotation Yrotation Xrotation
					End Site
					{
						OFFSET 0.000000 0.000000 0.000000 
					}
				}
			}
		}
	}
	JOINT Spine
	{
		OFFSET 0.028270 2.035590 -0.193380 
		CHANNELS 3 Zrotation Yrotation Xrotation
		JOINT Spine1
		{
			OFFSET 0.056720 2.048850 -0.042750 
			CHANNELS 3 Zrotation Yrotation Xrotation
			JOINT Neck1
			{
				OFFSET -0.054170 1.746240 0.172020 
				CHANNELS 3 Zrotation Yrotation Xrotation
				JOINT Head
				{
					OFFSET 0.104070 1.761360 -0.123970 
					CHANNELS 3 Zrotation Yrotation Xrotation
					End Site
					{
						OFFSET 0.000000 0.000000 0.000000 
					}
				}
			}
			JOINT LeftArm
			{
				OFFSET 3.362410 1.200890 -0.311210 
				CHANNELS 3 Zrotation Yrotation Xrotation
				JOINT LeftForeArm
				{
					OFFSET 4.983000 -0.000000 -0.000000 
					CHANNELS 3 Zrotation Yrotation Xrotation
					JOINT LeftHand
					{
						OFFSET 3.483560 -0.000000 -0.000000 
						CHANNELS 3 Zrotation Yrotation Xrotation
						JOINT LeftHandIndex1
						{
							OFFSET 0.715260 -0.000000 -0.000000 
							CHANNELS 3 Zrotation Yrotation Xrotation
							End Site
							{
								OFFSET 0.000000 0.000000 0.000000 
							}
						}
					}
				}
			}
			JOINT RightArm
			{
				OFFSET -3.136600 1.374050 -0.404650 
				CHANNELS 3 Zrotation Yrotation Xrotation
				JOINT RightForeArm
				{
					OFFSET -5.241900 -0.000000 -0.000000 
					CHANNELS 3 Zrotation Yrotation Xrotation
					JOINT RightHand
					{
						OFFSET -3.444170 -0.000000 -0.000000 
						CHANNELS 3 Zrotation Yrotation Xrotation
						JOINT RightHandIndex1
						{
							OFFSET -0.622530 -0.000000 -0.000000 
							CHANNELS 3 Zrotation Yrotation Xrotation
							End Site
							{
								OFFSET 0.000000 0.000000 0.000000 
							}
						}
					}
				}
			}
		}
	}
}
MOTION
Frames: 6
Frame Time: 0.041667
-3.133077 17.115951 20.583594 154.262579 37.819829 -49.888759 1.264393 4.924990 -4.816426 19.994894 18.895867 88.136381 -1.275103 7.298619 8.417880 0.022700 -0.973300 -2.675500 -41.681733 -10.721279 -89.647543 -5.710521 -16.244377 39.035805 12.985553 -39.957360 -4.591391 -0.011100 -0.679200 1.866500 8.617687 8.525179 -6.981384 8.734377 4.206505 -12.685229 1.924111 1.175482 -9.046080 2.763100 1.272900 1.162800 38.863666 -10.695248 -67.309391 13.157654 -22.679715 -4.689065 -4.265238 3.551502 -0.918665 -7.125000 0.000000 0.000000 -61.492805 27.543707 -58.979306 -16.787786 33.610083 -5.196816 -0.029583 -1.452204 25.511049 7.125000 0.000000 0.000000 
-3.092771 17.176356 20.293268 153.625041 39.657048 -49.375504 2.429846 4.112163 -5.513890 19.741956 19.009072 87.192839 -1.568022 8.108068 7.026011 0.017600 0.856200 2.353200 -39.751191 -11.947164 -90.901529 -7.057009 -17.550855 43.659363 12.488229 -39.656968 -0.977150 -0.001800 -0.277600 0.762800 8.640668 8.436171 -7.058124 9.019143 4.250482 -12.421473 1.658292 1.053959 -9.005146 2.719300 1.223500 1.307200 37.953399 -10.616377 -66.092273 13.500125 -22.970211 -4.972581 -4.241920 3.582171 -0.839421 -7.125000 0.000000 0.000000 -61.549706 27.042612 -58.793024 -16.768654 33.594557 -5.183349 -0.078472 -1.459876 26.139803 7.125000 0.000000 0.000000 
-3.045341 17.229423 20.050904 152.808651 41.409711 -49.036321 3.938026 3.447134 -6.314290 19.287776 19.116402 85.690620 -1.641409 8.165508 5.713567 0.160200 2.578900 7.108600 -37.790578 -13.091439 -91.751235 -8.275277 -18.663317 48.176351 11.876280 -38.013518 -0.899531 -0.014400 -0.774500 2.128500 8.793030 8.373886 -7.084977 9.524285 4.321197 -11.921619 2.015508 0.885490 -8.512116 3.161800 1.208800 1.702400 36.769419 -10.358511 -64.064619 14.400452 -24.401385 -5.477162 -6.540449 -5.907001 -1.755827 -7.125000 0.000000 0.000000 -62.021197 26.420526 -58.223913 -16.798666 33.704661 -5.195904 -0.097979 -1.458106 26.570297 7.125000 0.000000 0.000000 
-3.008119 17.272812 19.786314 152.127274 43.149398 -48.724868 4.869421 3.001447 -7.339725 18.654580 19.179791 83.625870 -1.826588 8.631247 4.726093 0.183300 2.757600 7.604500 -36.083644 -13.920885 -91.730276 -9.297223 -19.512891 52.063323 11.542232 -36.532290 -2.961433 -0.130200 -2.325900 6.407300 8.434164 7.919053 -7.474948 8.527239 4.054480 -12.379176 3.414134 1.039032 -7.805904 3.961700 1.383500 2.130000 36.210561 -10.050528 -60.467946 15.383380 -25.338925 -6.034783 -6.311299 -5.811264 -3.384513 -7.125000 0.000000 0.000000 -61.794784 26.625672 -58.718804 -16.807036 33.711857 -5.209719 -0.086346 -1.468642 27.109826 7.125000 0.000000 0.000000 
-2.971217 17.322795 19.547672 152.085153 45.005330 -47.899017 5.227786 2.763058 -8.311632 17.824391 19.189109 81.032763 -1.995778 9.040397 4.013909 0.099400 2.033300 5.597700 -34.822114 -14.544140 -91.662095 -10.267051 -20.161360 55.165459 11.425808 -36.224991 -2.882069 -0.470700 -4.400500 12.206100 8.954664 8.190800 -7.294522 9.961386 4.388838 -11.310665 3.192639 0.919455 -7.116402 4.154600 1.323900 2.598200 34.888899 -10.619156 -60.431225 16.098076 -25.980833 -6.572344 -6.192027 -5.885963 -4.420408 -7.125000 0.000000 0.000000 -62.169879 25.352751 -56.218191 -17.195188 34.134766 -5.435083 -0.084546 -1.419813 26.841574 7.125000 0.000000 0.000000 
-2.945375 17.350126 19.265428 152.416898 46.697052 -46.693219 5.147654 2.806780 -9.361970 16.773745 19.101360 77.822186 -2.157249 9.412301 3.543714 0.063200 1.622600 4.463600 -33.704541 -14.806320 -91.134915 -11.020113 -20.595198 57.385805 11.626014 -36.779934 -2.766003 -0.901100 -6.049700 16.928500 9.086862 8.279025 -7.385291 10.199949 4.503127 -10.878804 3.159245 0.995971 -6.723909 4.300100 1.355600 2.847200 33.857574 -11.136065 -58.682083 17.334717 -27.141683 -7.350159 -5.865803 -5.922088 -5.972121 -7.125000 0.000000 0.000000 -62.429492 24.816681 -54.674578 -17.307782 34.254873 -5.491626 -0.095117 -1.395972 26.250914 7.125000 0.000000 0.000000 
